# xmcd
#
# Track frame offsets:
#	150
#	11367
#	26526
#	41740
#	52065
#	66657
#	83273
#	98432
#	111432
#	121219
#	132651
#
# Disc length: 2722 seconds
#
# Revision: 1
# Processed by: cddbd v1.4PL0 Copyright (c) Steve Scherf et al.
# Submitted via: audiograbber 1.82.01
#
DISCID=8f0aa00b
DTITLE=The Whiskeyhounds - Panic Blues
DYEAR=2003
DGENRE=Alternative Country
TTITLE0=What Keeps Me Away From You
TTITLE1=Main St.
TTITLE2=Ain't Workin' For The Man
TTITLE3=Bridge
TTITLE4=Vagabond
TTITLE5=Almost Grown
TTITLE6=Be My Queen
TTITLE7=Dylan Thomas
TTITLE8=Nashville City Lights
TTITLE9=Panic Blues
TTITLE10=Lonesome Highway
EXTD=HayfeverRecords.com\nWhiskeyhounds.com
EXTT0=
EXTT1=
EXTT2=
EXTT3=
EXTT4=
EXTT5=
EXTT6=
EXTT7=
EXTT8=
EXTT9=
EXTT10=
PLAYORDER=
